<svg width="14" height="15" viewBox="0 0 14 15" fill="none" xmlns="http://www.w3.org/2000/svg">
<path d="M5.08083 8.83579C4.99875 8.75497 4.8946 8.70023 4.78148 8.67843C4.66837 8.65663 4.55134 8.66876 4.44509 8.71329C4.37272 8.73952 4.307 8.78133 4.25256 8.83576C4.19813 8.89019 4.15632 8.95592 4.13009 9.02829C4.09226 9.11701 4.07701 9.21373 4.08571 9.30979C4.09442 9.40585 4.1268 9.49825 4.17997 9.57872C4.23314 9.65919 4.30543 9.72523 4.39037 9.77092C4.47532 9.81661 4.57026 9.84052 4.66671 9.84052C4.76317 9.84052 4.85811 9.81661 4.94306 9.77092C5.028 9.72523 5.10029 9.65919 5.15346 9.57872C5.20662 9.49825 5.23901 9.40585 5.24771 9.30979C5.25642 9.21373 5.24117 9.11701 5.20333 9.02829C5.17382 8.95759 5.13239 8.89247 5.08083 8.83579ZM9.7475 8.83579C9.63471 8.73168 9.48685 8.67387 9.33336 8.67387C9.17986 8.67387 9.032 8.73168 8.91921 8.83579C8.86766 8.89249 8.82622 8.95762 8.79671 9.02834C8.7512 9.13441 8.73853 9.25169 8.76036 9.36503C8.78219 9.47836 8.83751 9.58255 8.91917 9.66413C8.97586 9.71568 9.04099 9.75712 9.11171 9.78663C9.18153 9.81743 9.257 9.83334 9.33331 9.83334C9.40962 9.83334 9.48509 9.81743 9.55491 9.78663C9.62556 9.75698 9.69067 9.71556 9.74745 9.66413C9.82911 9.58256 9.88443 9.47838 9.90627 9.36506C9.9281 9.25173 9.91546 9.13445 9.86995 9.02839C9.84047 8.95765 9.79904 8.8925 9.7475 8.83579ZM11.2638 11.5222C11.6768 11.193 11.992 10.7573 12.1755 10.2621C12.3589 9.76687 12.4036 9.23094 12.3047 8.71217L11.4297 4.04551C11.3043 3.37705 10.9492 2.77345 10.4258 2.33906C9.90251 1.90468 9.24384 1.66682 8.56372 1.66663H5.43628C4.75616 1.66683 4.09749 1.90469 3.57416 2.33908C3.05084 2.77347 2.69575 3.37708 2.57031 4.04553L1.69531 8.7122C1.59643 9.23096 1.64112 9.76689 1.82456 10.2621C2.008 10.7573 2.32322 11.1931 2.73619 11.5222L1.92092 12.3375C1.86595 12.3915 1.82222 12.4559 1.79226 12.5268C1.76229 12.5978 1.74668 12.674 1.74634 12.7511C1.74599 12.8281 1.7609 12.9044 1.79022 12.9757C1.81955 13.0469 1.86269 13.1117 1.91717 13.1661C1.97164 13.2206 2.03637 13.2637 2.10761 13.2931C2.17885 13.3224 2.2552 13.3373 2.33224 13.337C2.40928 13.3366 2.48549 13.321 2.55646 13.291C2.62744 13.2611 2.69177 13.2173 2.74575 13.1624L3.83608 12.072C4.0729 12.1338 4.31654 12.1656 4.56128 12.1666H9.43872C9.68345 12.1656 9.92709 12.1338 10.1639 12.0721L11.2543 13.1624C11.364 13.2701 11.5118 13.3302 11.6656 13.3295C11.8194 13.3288 11.9666 13.2674 12.0754 13.1587C12.1841 13.0499 12.2455 12.9026 12.2462 12.7489C12.2469 12.5951 12.1868 12.4473 12.0791 12.3375L11.2638 11.5222ZM3.71647 4.26087C3.79189 3.85981 4.00501 3.49768 4.31901 3.23703C4.63302 2.97638 5.02819 2.83358 5.43628 2.83329H8.56372C8.97181 2.83358 9.36698 2.97638 9.68099 3.23703C9.99499 3.49768 10.2081 3.85981 10.2835 4.26087L10.4858 5.33941C10.0502 5.83499 9.51407 6.232 8.91299 6.50397C8.31191 6.77595 7.65975 6.91663 7 6.91663C6.34025 6.91663 5.68809 6.77595 5.08701 6.50397C4.48593 6.232 3.94975 5.83499 3.51424 5.33941L3.71647 4.26087ZM10.7848 10.3676C10.6209 10.5657 10.4153 10.7251 10.1826 10.8345C9.94984 10.9438 9.69583 11.0003 9.43872 11H4.56128C4.30419 10.9999 4.05027 10.9431 3.81758 10.8338C3.5849 10.7245 3.37915 10.5652 3.21497 10.3674C3.05079 10.1696 2.93221 9.93797 2.86765 9.68911C2.8031 9.44026 2.79416 9.18024 2.84147 8.92753L3.25626 6.71532C4.30368 7.59874 5.62977 8.08329 7 8.08329C8.37023 8.08329 9.69632 7.59874 10.7437 6.71532L11.1585 8.92753C11.2063 9.18028 11.1975 9.44045 11.1329 9.68942C11.0683 9.93839 10.9494 10.17 10.7848 10.3676Z" fill="#383838"/>
</svg>
