<svg xmlns="http://www.w3.org/2000/svg" xmlns:xlink="http://www.w3.org/1999/xlink" version="1.1" width="20pt" height="20pt" viewBox="0 0 20 20">
<defs>
<clipPath id="clip_0">
<path transform="matrix(1,0,0,-1,0,20)" d="M0 10C0 15.522847 4.477153 20 10 20 15.522847 20 20 15.522847 20 10 20 4.477153 15.522847 0 10 0 4.477153 0 0 4.477153 0 10Z" fill-rule="evenodd"/>
</clipPath>
</defs>
<path transform="matrix(1,0,0,-1,0,20)" d="M0 10C0 15.522847 4.477153 20 10 20 15.522847 20 20 15.522847 20 10 20 4.477153 15.522847 0 10 0 4.477153 0 0 4.477153 0 10Z" fill="#E1F4FC"/>
<g clip-path="url(#clip_0)">
<path transform="matrix(1,0,0,-1,0,20)" d="M10 1.5C5.30558 1.5 1.5 5.30558 1.5 10H-1.5C-1.5 3.648726 3.648726-1.5 10-1.5V1.5ZM18.5 10C18.5 5.30558 14.69442 1.5 10 1.5V-1.5C16.351275-1.5 21.5 3.648726 21.5 10H18.5ZM10 18.5C14.69442 18.5 18.5 14.69442 18.5 10H21.5C21.5 16.351275 16.351275 21.5 10 21.5V18.5ZM10 21.5C3.648726 21.5-1.5 16.351275-1.5 10H1.5C1.5 14.69442 5.30558 18.5 10 18.5V21.5Z" fill="#1A70C1"/>
</g>
<path transform="matrix(1,0,-0,1,6,6)" d="M0 4C0 6.209139 1.790861 8 4 8 6.209139 8 8 6.209139 8 4 8 1.790861 6.209139 0 4 0 1.790861 0 0 1.790861 0 4Z" fill="#1A70C1"/>
</svg>
