<svg width="27" height="27" viewBox="0 0 27 27" fill="none" xmlns="http://www.w3.org/2000/svg">
<g clip-path="url(#clip0_3677_344716)">
<path fill-rule="evenodd" clip-rule="evenodd" d="M27 13.5C27 20.9558 20.9558 27 13.5 27C6.04416 27 0 20.9558 0 13.5C0 6.04416 6.04416 0 13.5 0C20.9558 0 27 6.04416 27 13.5ZM25 13.5C25 19.8513 19.8513 25 13.5 25C7.14873 25 2 19.8513 2 13.5C2 7.14873 7.14873 2 13.5 2C19.8513 2 25 7.14873 25 13.5ZM13.4996 18.9016C10.5173 18.9016 8.09961 16.4839 8.09961 13.5016C8.09961 10.5192 10.5173 8.10156 13.4996 8.10156C16.4819 8.10156 18.8996 10.5192 18.8996 13.5016C18.8996 16.4839 16.4819 18.9016 13.4996 18.9016Z" fill="#1A70C1"/>
</g>
<defs>
<clipPath id="clip0_3677_344716">
<rect width="27" height="27" fill="white"/>
</clipPath>
</defs>
</svg>
