<svg width="14" height="15" viewBox="0 0 14 15" fill="none" xmlns="http://www.w3.org/2000/svg">
<path d="M11.0833 9.83335C10.7372 9.83335 10.3989 9.93599 10.1111 10.1283C9.8233 10.3206 9.599 10.5939 9.46654 10.9137C9.33409 11.2334 9.29943 11.5853 9.36696 11.9248C9.43448 12.2642 9.60115 12.576 9.8459 12.8208C10.0906 13.0655 10.4025 13.2322 10.7419 13.2997C11.0814 13.3673 11.4333 13.3326 11.753 13.2001C12.0728 13.0677 12.3461 12.8434 12.5384 12.5556C12.7307 12.2678 12.8333 11.9295 12.8333 11.5834C12.8333 11.1192 12.649 10.6741 12.3208 10.3459C11.9926 10.0177 11.5475 9.83335 11.0833 9.83335ZM11.0833 12.1667C10.968 12.1667 10.8552 12.1325 10.7592 12.0684C10.6633 12.0043 10.5886 11.9132 10.5444 11.8066C10.5003 11.7 10.4887 11.5827 10.5112 11.4696C10.5337 11.3564 10.5893 11.2525 10.6709 11.1709C10.7524 11.0893 10.8564 11.0337 10.9695 11.0112C11.0827 10.9887 11.2 11.0003 11.3066 11.0444C11.4132 11.0886 11.5043 11.1633 11.5684 11.2593C11.6325 11.3552 11.6667 11.468 11.6667 11.5834C11.6667 11.7381 11.6052 11.8864 11.4958 11.9958C11.3864 12.1052 11.238 12.1667 11.0833 12.1667ZM5.25 9.83335C4.90388 9.83335 4.56554 9.93599 4.27775 10.1283C3.98997 10.3206 3.76566 10.5939 3.63321 10.9137C3.50076 11.2334 3.4661 11.5853 3.53363 11.9248C3.60115 12.2642 3.76782 12.576 4.01256 12.8208C4.2573 13.0655 4.56912 13.2322 4.90859 13.2997C5.24806 13.3673 5.59992 13.3326 5.9197 13.2001C6.23947 13.0677 6.51278 12.8434 6.70507 12.5556C6.89736 12.2678 7 11.9295 7 11.5834C7 11.1192 6.81562 10.6741 6.48744 10.3459C6.15925 10.0177 5.71413 9.83335 5.25 9.83335ZM5.25 12.1667C5.13463 12.1667 5.02185 12.1325 4.92592 12.0684C4.82999 12.0043 4.75522 11.9132 4.71107 11.8066C4.66692 11.7 4.65537 11.5827 4.67787 11.4696C4.70038 11.3564 4.75594 11.2525 4.83752 11.1709C4.9191 11.0893 5.02304 11.0337 5.1362 11.0112C5.24935 10.9887 5.36664 11.0003 5.47323 11.0444C5.57982 11.0886 5.67093 11.1633 5.73502 11.2593C5.79912 11.3552 5.83333 11.468 5.83333 11.5834C5.83333 11.7381 5.77187 11.8864 5.66248 11.9958C5.55308 12.1052 5.40471 12.1667 5.25 12.1667ZM12.8333 5.45835C12.8318 4.45321 12.4318 3.48969 11.7211 2.77894C11.0103 2.0682 10.0468 1.66823 9.04167 1.66669H8.75C8.59529 1.66669 8.44692 1.72815 8.33752 1.83754C8.22812 1.94694 8.16667 2.09531 8.16667 2.25002V5.16669H4.38667L3.6575 3.21252C3.61578 3.10087 3.54087 3.00468 3.44283 2.93689C3.3448 2.8691 3.22835 2.83297 3.10917 2.83335H1.75C1.59529 2.83335 1.44692 2.89481 1.33752 3.00421C1.22812 3.1136 1.16667 3.26198 1.16667 3.41669C1.16667 3.5714 1.22812 3.71977 1.33752 3.82917C1.44692 3.93856 1.59529 4.00002 1.75 4.00002H2.70667L3.43583 5.96585L3.73333 6.76502V6.81752C4.00509 7.53916 4.49234 8.1597 5.12893 8.59487C5.76551 9.03005 6.5206 9.25878 7.29167 9.25002H9.04167C9.53981 9.25079 10.0332 9.15324 10.4936 8.96296C10.954 8.77268 11.3723 8.49342 11.7245 8.14118C12.0767 7.78894 12.356 7.37064 12.5463 6.91027C12.7366 6.4499 12.8341 5.9565 12.8333 5.45835ZM10.8967 7.31335C10.6537 7.55796 10.3647 7.75195 10.0463 7.88412C9.72787 8.01629 9.38641 8.08401 9.04167 8.08335H7.29167C6.77023 8.08495 6.2603 7.93017 5.82773 7.63902C5.39515 7.34786 5.05981 6.9337 4.865 6.45002C4.86247 6.43849 4.86247 6.42655 4.865 6.41502L4.81833 6.33335H11.515C11.3878 6.70362 11.1761 7.03915 10.8967 7.31335ZM9.33333 5.16669V2.83335C9.93088 2.89568 10.4888 3.16154 10.9137 3.58636C11.3385 4.01118 11.6043 4.56914 11.6667 5.16669H9.33333Z" fill="#383838"/>
</svg>
