<svg width="14" height="15" viewBox="0 0 14 15" fill="none" xmlns="http://www.w3.org/2000/svg">
<path d="M3.86167 8.13002C3.78928 8.15622 3.72354 8.19802 3.6691 8.25245C3.61467 8.30689 3.57287 8.37263 3.54667 8.44502C3.50424 8.55103 3.49385 8.66716 3.5168 8.77902C3.53974 8.89087 3.59501 8.99353 3.67575 9.07427C3.75649 9.15501 3.85916 9.21028 3.97101 9.23323C4.08287 9.25617 4.199 9.24579 4.30501 9.20335C4.3757 9.17381 4.4408 9.13238 4.49751 9.08085C4.54903 9.02415 4.59046 8.95905 4.62001 8.88835C4.65266 8.81912 4.66864 8.74321 4.66667 8.66669C4.66452 8.51224 4.6041 8.36431 4.49751 8.25252C4.41547 8.17158 4.31131 8.11675 4.19815 8.09495C4.08499 8.07314 3.9679 8.08535 3.86167 8.13002ZM11.5267 5.79669L10.7333 3.44585C10.6123 3.10357 10.3879 2.8074 10.091 2.59836C9.7942 2.38933 9.43971 2.27779 9.07667 2.27919H4.92334C4.5603 2.27779 4.20581 2.38933 3.90898 2.59836C3.61215 2.8074 3.38768 3.10357 3.26667 3.44585L2.47334 5.81419C2.1002 5.9119 1.76979 6.13016 1.53349 6.43503C1.29719 6.7399 1.16823 7.1143 1.16667 7.50002V9.83335C1.16769 10.1944 1.28035 10.5463 1.48922 10.8408C1.69809 11.1353 1.99293 11.358 2.33334 11.4784V12.1667C2.33334 12.3214 2.3948 12.4698 2.50419 12.5792C2.61359 12.6886 2.76196 12.75 2.91667 12.75C3.07138 12.75 3.21975 12.6886 3.32915 12.5792C3.43855 12.4698 3.50001 12.3214 3.50001 12.1667V11.5834H10.5V12.1667C10.5 12.3214 10.5615 12.4698 10.6709 12.5792C10.7803 12.6886 10.9286 12.75 11.0833 12.75C11.238 12.75 11.3864 12.6886 11.4958 12.5792C11.6052 12.4698 11.6667 12.3214 11.6667 12.1667V11.4784C12.0071 11.358 12.3019 11.1353 12.5108 10.8408C12.7197 10.5463 12.8323 10.1944 12.8333 9.83335V7.50002C12.8318 7.1143 12.7028 6.7399 12.4665 6.43503C12.2302 6.13016 11.8998 5.9119 11.5267 5.81419V5.79669ZM4.36917 3.81335C4.40831 3.69749 4.48286 3.59686 4.5823 3.52568C4.68175 3.4545 4.80105 3.41637 4.92334 3.41669H9.07667C9.20388 3.41005 9.32976 3.44523 9.43509 3.51685C9.54043 3.58848 9.61942 3.69262 9.66001 3.81335L10.2725 5.75002H3.72751L4.36917 3.81335ZM11.6667 9.83335C11.6667 9.98806 11.6052 10.1364 11.4958 10.2458C11.3864 10.3552 11.238 10.4167 11.0833 10.4167H2.91667C2.76196 10.4167 2.61359 10.3552 2.50419 10.2458C2.3948 10.1364 2.33334 9.98806 2.33334 9.83335V7.50002C2.33334 7.34531 2.3948 7.19694 2.50419 7.08754C2.61359 6.97815 2.76196 6.91669 2.91667 6.91669H11.0833C11.238 6.91669 11.3864 6.97815 11.4958 7.08754C11.6052 7.19694 11.6667 7.34531 11.6667 7.50002V9.83335ZM9.69501 8.13002C9.62262 8.15622 9.55687 8.19802 9.50244 8.25245C9.448 8.30689 9.4062 8.37263 9.38001 8.44502C9.33757 8.55103 9.32719 8.66716 9.35013 8.77902C9.37308 8.89087 9.42835 8.99353 9.50909 9.07427C9.58983 9.15501 9.69249 9.21028 9.80435 9.23323C9.9162 9.25617 10.0323 9.24579 10.1383 9.20335C10.2107 9.17716 10.2765 9.13536 10.3309 9.08092C10.3853 9.02648 10.4271 8.96074 10.4533 8.88835C10.486 8.81912 10.502 8.74321 10.5 8.66669C10.4979 8.51224 10.4374 8.36431 10.3308 8.25252C10.2488 8.17158 10.1446 8.11675 10.0315 8.09495C9.91832 8.07314 9.80124 8.08535 9.69501 8.13002ZM7.58334 8.08335H6.41667C6.26196 8.08335 6.11359 8.14481 6.00419 8.25421C5.8948 8.36361 5.83334 8.51198 5.83334 8.66669C5.83334 8.8214 5.8948 8.96977 6.00419 9.07917C6.11359 9.18856 6.26196 9.25002 6.41667 9.25002H7.58334C7.73805 9.25002 7.88642 9.18856 7.99582 9.07917C8.10521 8.96977 8.16667 8.8214 8.16667 8.66669C8.16667 8.51198 8.10521 8.36361 7.99582 8.25421C7.88642 8.14481 7.73805 8.08335 7.58334 8.08335Z" fill="#383838"/>
</svg>
