<svg width="14" height="15" viewBox="0 0 14 15" fill="none" xmlns="http://www.w3.org/2000/svg">
<path fill-rule="evenodd" clip-rule="evenodd" d="M3.96665 5.28333H2.74999C2.5843 5.28333 2.44999 5.41765 2.44999 5.58333V6.08333C2.44999 6.8013 3.03202 7.38333 3.74999 7.38333H4.08332V6.91667C4.08332 6.5945 4.34449 6.33333 4.66665 6.33333C4.98882 6.33333 5.24999 6.5945 5.24999 6.91667V7.38333H8.74999V6.91667C8.74999 6.5945 9.01115 6.33333 9.33332 6.33333C9.65549 6.33333 9.91665 6.5945 9.91665 6.91667V7.38333H10.25C10.968 7.38333 11.55 6.8013 11.55 6.08333V5.58333C11.55 5.41765 11.4157 5.28333 11.25 5.28333H10.0333H9.33332H4.66665H3.96665ZM8.74999 8.78333V9.25C8.74999 9.57217 9.01115 9.83333 9.33332 9.83333C9.65549 9.83333 9.91665 9.57217 9.91665 9.25V8.78333H10.25H10.9667V10.75C10.9667 11.468 10.3846 12.05 9.66665 12.05H4.33332C3.61535 12.05 3.03332 11.468 3.03332 10.75V8.78333H3.74999H4.08332V9.25C4.08332 9.57217 4.34449 9.83333 4.66665 9.83333C4.98882 9.83333 5.24999 9.57217 5.24999 9.25V8.78333H8.74999ZM10.0086 3.88333H11.25C12.1889 3.88333 12.95 4.64445 12.95 5.58333V6.08333C12.95 6.71675 12.7319 7.29921 12.3667 7.75973V8.08333V10.75C12.3667 12.2412 11.1578 13.45 9.66665 13.45H4.33332C2.84215 13.45 1.63332 12.2412 1.63332 10.75V8.08333V7.75973C1.2681 7.29921 1.04999 6.71674 1.04999 6.08333V5.58333C1.04999 4.64445 1.8111 3.88333 2.74999 3.88333H3.99134C4.17025 2.5656 5.29985 1.55 6.66665 1.55H7.33332C8.70012 1.55 9.82972 2.5656 10.0086 3.88333ZM8.58089 3.88333C8.42261 3.3439 7.92396 2.95 7.33332 2.95H6.66665C6.07601 2.95 5.57737 3.3439 5.41908 3.88333H8.58089Z" fill="#383838"/>
</svg>
