<svg width="14" height="15" viewBox="0 0 14 15" fill="none" xmlns="http://www.w3.org/2000/svg">
<path d="M12.6467 10.7959L8.56334 2.62921C8.41761 2.33953 8.19427 2.09603 7.91822 1.92589C7.64217 1.75575 7.32428 1.66565 7 1.66565C6.67573 1.66565 6.35784 1.75575 6.08179 1.92589C5.80574 2.09603 5.5824 2.33953 5.43667 2.62921L1.35334 10.7959C1.19293 11.1182 1.13582 11.4821 1.1898 11.838C1.24378 12.194 1.40623 12.5246 1.65499 12.7848C1.90375 13.0451 2.22672 13.2223 2.57986 13.2923C2.933 13.3622 3.29914 13.3216 3.62834 13.1759L6.76084 11.7759C6.83657 11.7441 6.91788 11.7277 7 11.7277C7.08213 11.7277 7.16344 11.7441 7.23917 11.7759L10.3717 13.1759C10.7009 13.3216 11.067 13.3622 11.4201 13.2923C11.7733 13.2223 12.0963 13.0451 12.345 12.7848C12.5938 12.5246 12.7562 12.194 12.8102 11.838C12.8642 11.4821 12.8071 11.1182 12.6467 10.7959ZM11.48 11.9625C11.3967 12.0492 11.2887 12.1081 11.1707 12.1311C11.0527 12.154 10.9305 12.14 10.8208 12.0909L7.68834 10.6967C7.46433 10.597 7.22187 10.5455 6.97667 10.5455C6.73147 10.5455 6.48901 10.597 6.265 10.6967L3.15584 12.1084C3.04673 12.1558 2.92574 12.1687 2.80909 12.1454C2.69243 12.1221 2.58569 12.0637 2.50317 11.978C2.42066 11.8923 2.36631 11.7834 2.34743 11.666C2.32854 11.5485 2.34601 11.4281 2.3975 11.3209L6.48084 3.15421C6.52979 3.05866 6.60416 2.97847 6.69576 2.92248C6.78737 2.86648 6.89264 2.83685 7 2.83685C7.10736 2.83685 7.21264 2.86648 7.30424 2.92248C7.39585 2.97847 7.47022 3.05866 7.51917 3.15421L11.6025 11.3209C11.6553 11.4277 11.6741 11.5482 11.6563 11.666C11.6386 11.7839 11.5852 11.8935 11.5033 11.98L11.48 11.9625Z" fill="#383838"/>
</svg>
