<svg width="14" height="15" viewBox="0 0 14 15" fill="none" xmlns="http://www.w3.org/2000/svg">
<path d="M12.6875 7.49996C12.6872 7.39224 12.657 7.28671 12.6004 7.19508C12.5438 7.10344 12.4629 7.02927 12.3667 6.9808L8.79666 5.1958V2.86246C8.79666 2.38596 8.60737 1.92897 8.27043 1.59203C7.93349 1.25509 7.4765 1.0658 7 1.0658C6.52349 1.0658 6.0665 1.25509 5.72956 1.59203C5.39262 1.92897 5.20333 2.38596 5.20333 2.86246V5.1958L1.63333 6.9808C1.53713 7.02927 1.45623 7.10344 1.3996 7.19508C1.34297 7.28671 1.31282 7.39224 1.3125 7.49996V9.44246C1.31171 9.53749 1.33414 9.63128 1.37786 9.71566C1.42157 9.80004 1.48524 9.87246 1.56333 9.92663C1.64097 9.97983 1.73033 10.0134 1.82378 10.0246C1.91724 10.0358 2.012 10.0242 2.1 9.9908L5.20333 8.82413V11L4.14166 11.35C4.0258 11.3891 3.92517 11.4637 3.85399 11.5631C3.78281 11.6625 3.74468 11.7818 3.745 11.9041V13.3333C3.74532 13.4105 3.76095 13.4868 3.79099 13.5579C3.82103 13.629 3.86488 13.6934 3.92 13.7475C4.02865 13.8552 4.1753 13.916 4.32833 13.9166H9.6775C9.83221 13.9166 9.98058 13.8552 10.09 13.7458C10.1994 13.6364 10.2608 13.488 10.2608 13.3333V11.875C10.2611 11.7527 10.223 11.6334 10.1518 11.5339C10.0807 11.4345 9.98003 11.3599 9.86416 11.3208L8.79666 11V8.82996L11.9 9.99663C11.988 10.03 12.0828 10.0416 12.1762 10.0305C12.2697 10.0193 12.359 9.98566 12.4367 9.93246C12.5147 9.8783 12.5784 9.80587 12.6221 9.72149C12.6659 9.63711 12.6883 9.54333 12.6875 9.4483V7.49996ZM8.42333 7.44163C8.33454 7.40723 8.23867 7.3951 8.1441 7.40628C8.04954 7.41747 7.95915 7.45163 7.88083 7.5058C7.80356 7.5594 7.74039 7.6309 7.69672 7.71418C7.65304 7.79747 7.63015 7.89008 7.63 7.98413V11.3908C7.63009 11.5138 7.66906 11.6336 7.74135 11.7332C7.81364 11.8327 7.91555 11.9068 8.0325 11.945L9.08833 12.295V12.75H4.90583V12.295L5.96166 11.945C6.07862 11.9068 6.18052 11.8327 6.25281 11.7332C6.3251 11.6336 6.36407 11.5138 6.36416 11.3908V7.98413C6.36401 7.89008 6.34112 7.79747 6.29744 7.71418C6.25377 7.6309 6.1906 7.5594 6.11333 7.5058C6.03501 7.45163 5.94462 7.41747 5.85006 7.40628C5.75549 7.3951 5.65963 7.40723 5.57083 7.44163L2.47333 8.6083V7.86163L6.0375 6.07663C6.13479 6.02896 6.21688 5.95515 6.27458 5.86345C6.33227 5.77175 6.3633 5.6658 6.36416 5.55746V2.87996C6.36416 2.71288 6.43054 2.55263 6.54869 2.43449C6.66683 2.31634 6.82708 2.24996 6.99416 2.24996C7.16125 2.24996 7.32149 2.31634 7.43964 2.43449C7.55779 2.55263 7.62416 2.71288 7.62416 2.87996V5.55746C7.62503 5.6658 7.65605 5.77175 7.71375 5.86345C7.77145 5.95515 7.85354 6.02896 7.95083 6.07663L11.515 7.86163V8.60246L8.42333 7.44163Z" fill="#383838"/>
</svg>
