<svg width="14" height="15" viewBox="0 0 14 15" fill="none" xmlns="http://www.w3.org/2000/svg">
<path d="M6.99999 4.29165C7.23074 4.29165 7.4563 4.22322 7.64816 4.09503C7.84002 3.96683 7.98955 3.78462 8.07785 3.57144C8.16615 3.35826 8.18926 3.12369 8.14424 2.89737C8.09923 2.67106 7.98811 2.46318 7.82495 2.30002C7.66179 2.13686 7.45391 2.02575 7.2276 1.98073C7.00129 1.93571 6.76671 1.95882 6.55353 2.04712C6.34035 2.13542 6.15814 2.28496 6.02994 2.47681C5.90175 2.66867 5.83333 2.89424 5.83333 3.12498C5.83333 3.4344 5.95624 3.73115 6.17503 3.94994C6.39383 4.16873 6.69057 4.29165 6.99999 4.29165ZM11.375 12.4583H10.7917V9.54165C10.7917 9.38694 10.7302 9.23856 10.6208 9.12917C10.5114 9.01977 10.363 8.95831 10.2083 8.95831H7.29166V7.79165H10.2083C10.363 7.79165 10.5114 7.73019 10.6208 7.62079C10.7302 7.5114 10.7917 7.36302 10.7917 7.20831C10.7917 7.0536 10.7302 6.90523 10.6208 6.79584C10.5114 6.68644 10.363 6.62498 10.2083 6.62498H7.29166V5.45831C7.29166 5.3036 7.2302 5.15523 7.12081 5.04584C7.01141 4.93644 6.86304 4.87498 6.70833 4.87498C6.55362 4.87498 6.40524 4.93644 6.29585 5.04584C6.18645 5.15523 6.12499 5.3036 6.12499 5.45831V9.54165C6.12499 9.69636 6.18645 9.84473 6.29585 9.95413C6.40524 10.0635 6.55362 10.125 6.70833 10.125H9.62499V13.0416C9.62499 13.1964 9.68645 13.3447 9.79585 13.4541C9.90524 13.5635 10.0536 13.625 10.2083 13.625H11.375C11.5297 13.625 11.6781 13.5635 11.7875 13.4541C11.8969 13.3447 11.9583 13.1964 11.9583 13.0416C11.9583 12.8869 11.8969 12.7386 11.7875 12.6292C11.6781 12.5198 11.5297 12.4583 11.375 12.4583ZM7.40833 11.525C7.11449 11.9168 6.70483 12.2062 6.23738 12.3522C5.76993 12.4982 5.26839 12.4934 4.8038 12.3386C4.3392 12.1837 3.93511 11.8866 3.64876 11.4893C3.36241 11.092 3.20833 10.6147 3.20833 10.125C3.20901 9.67157 3.34179 9.22818 3.59042 8.84902C3.83905 8.46985 4.19277 8.17134 4.60833 7.98998C4.75066 7.9281 4.86258 7.81221 4.91947 7.6678C4.97635 7.5234 4.97354 7.36231 4.91166 7.21998C4.84978 7.07765 4.73388 6.96573 4.58948 6.90884C4.44508 6.85196 4.28399 6.85476 4.14166 6.91665C3.65078 7.13099 3.21565 7.45514 2.86978 7.86413C2.5239 8.27312 2.27651 8.75604 2.14666 9.27569C2.01681 9.79534 2.00796 10.3379 2.12079 10.8615C2.23362 11.3851 2.46513 11.8758 2.79748 12.2959C3.12983 12.7159 3.55416 13.0541 4.03778 13.2843C4.5214 13.5146 5.05142 13.6308 5.58701 13.6239C6.12259 13.6171 6.64947 13.4874 7.12704 13.2448C7.60462 13.0023 8.02016 12.6534 8.34166 12.225C8.43449 12.1012 8.47434 11.9456 8.45246 11.7925C8.43058 11.6393 8.34876 11.5011 8.22499 11.4083C8.10123 11.3155 7.94565 11.2756 7.7925 11.2975C7.63934 11.3194 7.50115 11.4012 7.40833 11.525Z" fill="#383838"/>
</svg>
