<svg width="20" height="20" viewBox="0 0 20 20" fill="none" xmlns="http://www.w3.org/2000/svg">
<g clip-path="url(#clip0_3651_529826)">
<path fill-rule="evenodd" clip-rule="evenodd" d="M6 0.5H14C17.0376 0.5 19.5 2.96243 19.5 6V14C19.5 17.0376 17.0376 19.5 14 19.5H6C2.96243 19.5 0.5 17.0376 0.5 14V6C0.5 2.96243 2.96243 0.5 6 0.5ZM15.7279 7.56065C16.3137 6.97486 16.3137 6.02512 15.7279 5.43933C15.1421 4.85355 14.1924 4.85356 13.6066 5.43935L8.25065 10.7954L6.39465 8.93935C5.80887 8.35356 4.85912 8.35355 4.27333 8.93933C3.68754 9.52512 3.68753 10.4749 4.27332 11.0607L7.18998 13.9774C7.47128 14.2587 7.85282 14.4167 8.25064 14.4167C8.64847 14.4167 9.03 14.2587 9.31131 13.9774L15.7279 7.56065Z" fill="#8E3189"/>
<path d="M15.7279 5.43933L16.0815 5.08578L16.0815 5.08578L15.7279 5.43933ZM15.7279 7.56065L16.0815 7.91421L16.0815 7.91421L15.7279 7.56065ZM13.6066 5.43935L13.2531 5.08579L13.2531 5.08579L13.6066 5.43935ZM8.25065 10.7954L7.89709 11.1489L8.25065 11.5025L8.6042 11.1489L8.25065 10.7954ZM6.39465 8.93935L6.0411 9.2929L6.0411 9.2929L6.39465 8.93935ZM4.27333 8.93933L4.62688 9.29289L4.62688 9.29289L4.27333 8.93933ZM4.27332 11.0607L4.62687 10.7071L4.62687 10.7071L4.27332 11.0607ZM7.18998 13.9774L6.83642 14.3309L6.83642 14.3309L7.18998 13.9774ZM9.31131 13.9774L8.95775 13.6238L8.95775 13.6238L9.31131 13.9774ZM14 0H6V1H14V0ZM20 6C20 2.68629 17.3137 0 14 0V1C16.7614 1 19 3.23858 19 6H20ZM20 14V6H19V14H20ZM14 20C17.3137 20 20 17.3137 20 14H19C19 16.7614 16.7614 19 14 19V20ZM6 20H14V19H6V20ZM0 14C0 17.3137 2.68629 20 6 20V19C3.23858 19 1 16.7614 1 14H0ZM0 6V14H1V6H0ZM6 0C2.68629 0 0 2.68629 0 6H1C1 3.23858 3.23858 1 6 1V0ZM15.3744 5.79289C15.7649 6.18341 15.7649 6.81658 15.3744 7.2071L16.0815 7.91421C16.8625 7.13315 16.8625 5.86682 16.0815 5.08578L15.3744 5.79289ZM13.9602 5.7929C14.3507 5.40237 14.9839 5.40237 15.3744 5.79289L16.0815 5.08578C15.3004 4.30473 14.0341 4.30474 13.2531 5.08579L13.9602 5.7929ZM8.6042 11.1489L13.9602 5.7929L13.2531 5.08579L7.89709 10.4418L8.6042 11.1489ZM6.0411 9.2929L7.89709 11.1489L8.6042 10.4418L6.74821 8.5858L6.0411 9.2929ZM4.62688 9.29289C5.01741 8.90237 5.65057 8.90237 6.0411 9.2929L6.74821 8.5858C5.96716 7.80474 4.70083 7.80473 3.91978 8.58578L4.62688 9.29289ZM4.62687 10.7071C4.23635 10.3166 4.23636 9.68341 4.62688 9.29289L3.91978 8.58578C3.13873 9.36682 3.13872 10.6331 3.91976 11.4142L4.62687 10.7071ZM7.54353 13.6238L4.62687 10.7071L3.91976 11.4142L6.83642 14.3309L7.54353 13.6238ZM8.25064 13.9167C7.98543 13.9167 7.73107 13.8113 7.54353 13.6238L6.83642 14.3309C7.21149 14.706 7.7202 14.9167 8.25064 14.9167V13.9167ZM8.95775 13.6238C8.77022 13.8113 8.51586 13.9167 8.25064 13.9167V14.9167C8.78108 14.9167 9.28979 14.706 9.66487 14.3309L8.95775 13.6238ZM15.3744 7.2071L8.95775 13.6238L9.66487 14.3309L16.0815 7.91421L15.3744 7.2071Z" fill="#8E3189"/>
</g>
<defs>
<clipPath id="clip0_3651_529826">
<rect width="20" height="20" fill="white"/>
</clipPath>
</defs>
</svg>
